<?xml version="1.0" encoding="UTF-8" standalone="no"?>
<svg
   xmlns:dc="http://purl.org/dc/elements/1.1/"
   xmlns:cc="http://creativecommons.org/ns#"
   xmlns:rdf="http://www.w3.org/1999/02/22-rdf-syntax-ns#"
   xmlns:svg="http://www.w3.org/2000/svg"
   xmlns="http://www.w3.org/2000/svg"
   id="svg44"
   version="1.1"
   fill-rule="evenodd"
   viewBox="0 0 595.276 841.89"
   height="841.89pt"
   width="595.276pt">
  <metadata
     id="metadata50">
    <rdf:RDF>
      <cc:Work
         rdf:about="">
        <dc:format>image/svg+xml</dc:format>
        <dc:type
           rdf:resource="http://purl.org/dc/dcmitype/StillImage" />
      </cc:Work>
    </rdf:RDF>
  </metadata>
  <defs
     id="defs48" />
  <g
     id="g42">
    <path
       id="path2"
       d="M 14.1732 137.48L 581.102 137.48L 581.102 704.409L 14.1732 704.409L 14.1732 137.48z"
       style="stroke:none; fill:#2c2c2b" />
    <g
       id="g40">
      <path
         id="path4"
         d="M 352.093 460.312C 352.093 469.57 350.245 478.641 346.753 487.034C 346.354 487.993 345.934 488.944 345.491 489.885C 355.352 495.471 366.317 499.349 377.98 501.11C 379.53 499.772 381.037 498.375 382.498 496.921C 390.666 488.79 397.045 479.208 401.382 468.784C 405.717 458.363 408.012 447.097 408.012 435.593C 408.012 411.642 398.262 389.959 382.497 374.265C 366.733 358.571 344.95 348.863 320.89 348.863C 320.014 348.863 319.142 348.876 318.273 348.902C 311.909 356.817 306.799 365.774 303.245 375.475C 306.175 373.411 309.32 371.686 312.617 370.326C 318.396 367.943 324.638 366.682 331.007 366.682C 344.278 366.687 356.293 372.042 364.989 380.699C 373.687 389.36 379.068 401.323 379.068 414.536C 379.068 420.88 377.802 427.096 375.408 432.85C 373.017 438.599 369.498 443.886 364.99 448.373C 361.179 452.166 356.794 455.258 352.038 457.561C 352.074 458.477 352.093 459.393 352.093 460.312zM 345.175 486.379C 348.58 478.196 350.382 469.348 350.382 460.312C 350.382 459.654 350.372 458.995 350.353 458.339C 350.036 458.477 349.717 458.613 349.397 458.745C 343.617 461.129 337.374 462.39 331.007 462.39C 324.638 462.39 318.395 461.129 312.616 458.745L 312.458 458.679C 316.156 464.424 320.463 469.742 325.288 474.545C 330.879 480.112 337.166 484.985 344.007 489.026C 344.416 488.152 344.805 487.27 345.175 486.379zM 344.745 491.425C 341.398 498.12 336.962 504.299 331.548 509.688C 326.52 514.693 320.806 518.862 314.625 522.101C 316.703 522.249 318.792 522.324 320.89 522.324C 332.448 522.324 343.765 520.04 354.232 515.724C 362.141 512.463 369.567 508.041 376.249 502.567C 364.964 500.683 354.342 496.849 344.745 491.425zM 330.345 508.478C 335.649 503.198 339.992 497.139 343.262 490.571C 336.251 486.442 329.809 481.455 324.084 475.756C 318.562 470.257 313.706 464.095 309.647 457.401C 305.018 455.115 300.746 452.08 297.023 448.373C 292.515 443.885 288.995 438.599 286.603 432.848C 284.21 427.095 282.943 420.881 282.943 414.536C 282.943 408.193 284.21 401.976 286.604 396.223C 287.13 394.956 287.713 393.711 288.348 392.492C 286.233 392.295 284.101 392.195 281.96 392.195C 272.888 392.195 263.999 393.989 255.773 397.381C 249.5 399.968 243.612 403.485 238.323 407.845C 235.37 416.558 233.769 425.889 233.769 435.593C 233.769 447.097 236.064 458.363 240.399 468.784C 244.736 479.208 251.116 488.79 259.283 496.921C 267.453 505.054 277.079 511.407 287.548 515.724C 295.127 518.85 303.151 520.909 311.389 521.808C 318.358 518.503 324.782 514.016 330.345 508.478zM 311.675 523.558C 310.725 524.001 309.765 524.422 308.796 524.822C 300.365 528.299 291.254 530.138 281.96 530.138C 272.666 530.138 263.555 528.299 255.124 524.822C 246.695 521.346 238.946 516.233 232.371 509.688C 225.794 503.139 220.657 495.424 217.166 487.034C 213.674 478.64 211.826 469.57 211.826 460.312C 211.826 451.055 213.674 441.985 217.167 433.592C 220.658 425.201 225.794 417.486 232.371 410.938C 233.813 409.503 235.311 408.137 236.861 406.841C 241.299 393.984 248.629 382.464 258.08 373.055C 273.4 357.804 294.286 348.096 317.443 347.216C 319.531 344.662 321.748 342.217 324.084 339.89C 341.547 322.505 365.67 311.751 392.314 311.751C 418.958 311.751 443.081 322.505 460.544 339.89C 478.007 357.276 488.81 381.295 488.81 407.823C 488.81 434.351 478.007 458.369 460.543 475.756C 443.081 493.14 418.958 503.894 392.314 503.894C 387.623 503.894 383.01 503.559 378.497 502.915C 371.387 508.945 363.409 513.786 354.88 517.302C 344.202 521.706 332.664 524.036 320.89 524.036C 317.798 524.036 314.722 523.876 311.675 523.558zM 308.148 523.244L 308.368 523.152C 300.967 522.102 293.757 520.13 286.9 517.302C 276.223 512.899 266.409 506.423 258.079 498.131C 249.748 489.838 243.243 480.067 238.822 469.439C 234.398 458.808 232.058 447.319 232.058 435.593C 232.058 426.692 233.38 418.099 235.838 409.996C 235.068 410.695 234.314 411.412 233.574 412.148C 227.16 418.534 222.151 426.06 218.744 434.247C 215.339 442.43 213.537 451.278 213.537 460.312C 213.537 469.347 215.339 478.195 218.744 486.378C 222.151 494.566 227.16 502.091 233.574 508.478C 239.991 514.866 247.55 519.854 255.772 523.244C 263.992 526.634 272.881 528.427 281.96 528.427C 291.038 528.427 299.928 526.634 308.148 523.244zM 239.418 404.802C 244.26 401.125 249.544 398.105 255.126 395.803C 263.552 392.329 272.66 390.49 281.96 390.49C 284.401 390.49 286.83 390.617 289.236 390.867C 291.345 387.178 293.956 383.753 297.025 380.698C 298.222 379.506 299.477 378.383 300.781 377.332C 304.256 366.991 309.449 357.435 316.021 348.997C 293.9 350.21 273.977 359.636 259.284 374.265C 250.657 382.854 243.831 393.236 239.418 404.802zM 291.085 391.083C 293.109 391.348 295.115 391.7 297.099 392.136C 297.757 388.14 298.664 384.226 299.803 380.412C 299.268 380.898 298.742 381.396 298.228 381.908C 295.445 384.678 293.052 387.765 291.085 391.083zM 298.769 392.525C 302.193 393.367 305.545 394.463 308.794 395.803C 317.224 399.279 324.973 404.392 331.548 410.938C 338.126 417.486 343.262 425.201 346.753 433.591C 349.664 440.587 351.432 448.054 351.94 455.707C 356.278 453.522 360.283 450.651 363.786 447.163C 368.13 442.838 371.524 437.74 373.831 432.194C 376.137 426.651 377.357 420.657 377.357 414.536C 377.357 401.793 372.17 390.257 363.785 381.909C 355.396 373.557 343.806 368.391 331.007 368.39C 324.855 368.393 318.832 369.608 313.265 371.904C 309.33 373.527 305.618 375.69 302.246 378.348C 300.734 382.929 299.565 387.665 298.769 392.525zM 308.146 397.381C 305.021 396.092 301.799 395.034 298.509 394.218C 297.864 398.66 297.529 403.203 297.529 407.823C 297.529 425.462 302.391 441.969 310.852 456.091C 311.645 456.472 312.45 456.832 313.264 457.167C 318.832 459.463 324.854 460.678 331.007 460.678C 337.158 460.678 343.181 459.463 348.748 457.167C 349.261 456.956 349.77 456.735 350.275 456.505C 349.842 448.797 348.1 441.276 345.175 434.246C 341.77 426.059 336.76 418.534 330.345 412.148C 323.928 405.76 316.369 400.772 308.146 397.381zM 296.836 393.825C 294.643 393.338 292.421 392.959 290.178 392.688C 289.442 394.051 288.775 395.45 288.181 396.878C 285.874 402.421 284.654 408.416 284.654 414.536C 284.654 420.657 285.874 426.651 288.18 432.193C 290.488 437.74 293.882 442.838 298.227 447.163C 301.168 450.092 304.464 452.586 308.013 454.604C 300.245 440.76 295.817 424.805 295.817 407.823C 295.817 403.068 296.166 398.395 296.836 393.825zM 409.723 435.593C 409.723 447.319 407.382 458.808 402.959 469.439C 398.538 480.067 392.032 489.838 383.702 498.131C 382.566 499.262 381.403 500.359 380.213 501.421C 384.176 501.924 388.215 502.183 392.314 502.183C 418.491 502.183 442.188 491.621 459.34 474.545C 476.49 457.471 487.099 433.88 487.099 407.823C 487.099 381.765 476.49 358.174 459.34 341.101C 442.188 324.025 418.492 313.463 392.314 313.463C 366.137 313.463 342.439 324.025 325.287 341.101C 323.341 343.038 321.481 345.06 319.709 347.159L 320.89 347.151C 345.417 347.151 367.625 357.051 383.701 373.055C 399.778 389.061 409.723 411.173 409.723 435.593z"
         style="stroke:none; fill:#ffffff" />
      <path
         id="path6"
         d="M 129.308 390.507C 128.136 390.507 126.96 390.566 125.79 390.613C 123.554 390.747 121.32 391.015 119.126 391.464C 117.213 391.855 115.319 392.41 113.542 393.223C 111.618 394.102 109.875 395.293 108.517 396.928C 107.177 398.541 106.505 400.43 106.466 402.524L 106.466 413.565L 106.466 448.899L 114.232 448.899L 114.232 427.338L 144.417 427.338L 144.417 448.899L 152.177 448.899L 152.177 401.203L 151.966 401.203C 151.719 399.632 151.08 398.195 150.026 396.928C 148.67 395.295 146.925 394.104 145.007 393.223C 143.243 392.413 141.369 391.851 139.47 391.464C 137.28 391.018 135.054 390.747 132.823 390.613C 131.652 390.542 130.482 390.507 129.311 390.507L 129.308 390.507zM 129.231 397.061C 130.168 397.061 131.103 397.061 132.038 397.142C 133.788 397.236 135.545 397.429 137.265 397.763C 138.607 398.026 139.989 398.397 141.234 398.975C 142.123 399.39 142.995 399.939 143.645 400.684C 144.126 401.233 144.402 401.843 144.414 402.575L 144.414 420.72L 114.23 420.72L 114.23 402.555C 114.23 401.845 114.488 401.227 114.962 400.669C 115.59 399.924 116.433 399.382 117.308 398.975C 118.526 398.408 119.907 398.042 121.224 397.789C 122.94 397.456 124.675 397.244 126.421 397.142C 127.356 397.083 128.295 397.061 129.231 397.061z"
         style="stroke:none; fill:#ffffff" />
      <path
         id="path8"
         d="M 188.713 442.972L 188.713 449.145L 187.439 449.209C 185.037 449.332 182.429 449.273 180.093 448.654C 178.11 448.133 176.375 447.116 175.177 445.429C 173.906 443.637 173.543 441.348 173.543 439.196L 173.543 391.052L 181.308 391.052L 181.308 439.274C 181.308 440.006 181.383 441.022 181.812 441.645C 182.188 442.19 182.812 442.47 183.435 442.628C 184.663 442.937 186.097 442.989 187.357 442.979L 188.713 442.972z"
         style="stroke:none; fill:#ffffff" />
      <path
         id="path10"
         d="M 225.248 442.972L 225.248 449.145L 223.973 449.209C 221.57 449.332 218.965 449.273 216.628 448.654C 214.645 448.133 212.909 447.116 211.713 445.429C 210.441 443.637 210.077 441.348 210.077 439.196L 210.077 391.052L 217.842 391.052L 217.842 439.274C 217.842 440.006 217.918 441.022 218.348 441.645C 218.723 442.19 219.347 442.47 219.971 442.628C 221.198 442.937 222.632 442.989 223.892 442.979L 225.248 442.972z"
         style="stroke:none; fill:#ffffff" />
      <path
         id="path12"
         d="M 266.982 407.123C 264.414 407.123 261.856 407.392 259.343 407.929C 257.183 408.391 255.048 409.068 253.07 410.06C 251.295 410.952 249.68 412.142 248.453 413.713C 247.23 415.277 246.63 417.081 246.611 419.064L 246.611 436.543C 246.611 437.762 246.793 438.97 247.192 440.122C 247.621 441.347 248.324 442.438 249.177 443.411C 250.224 444.483 251.441 445.356 252.756 446.074C 254.191 446.859 255.712 447.473 257.28 447.938C 258.97 448.443 260.704 448.781 262.453 448.998C 263.978 449.187 265.513 449.278 267.05 449.255C 268.573 449.255 270.095 449.105 271.606 448.923C 273.375 448.706 275.129 448.373 276.845 447.897C 278.529 447.428 280.149 446.755 281.661 445.88C 283.165 445.007 284.478 443.881 285.577 442.538L 286.67 441.199L 279.862 438.008L 279.192 438.721C 278.169 439.81 276.93 440.613 275.539 441.154C 273.952 441.772 272.299 442.152 270.605 442.317L 270.545 442.317L 270.545 442.323C 269.281 442.505 268.006 442.598 266.729 442.598C 265.449 442.598 264.17 442.499 262.903 442.323C 261.344 442.108 259.788 441.744 258.33 441.142C 257.225 440.685 256.128 440.057 255.286 439.199C 255.003 438.877 254.763 438.522 254.624 438.114C 254.477 437.694 254.423 437.253 254.423 436.81L 254.423 434.162C 255.849 434.162 257.27 434.228 258.693 434.281C 260.845 434.351 263.004 434.351 265.157 434.338C 267.37 434.338 269.578 434.141 271.768 433.83C 273.884 433.526 275.965 432.995 277.943 432.177C 279.919 431.361 281.784 430.255 283.314 428.749C 284.631 427.454 285.678 425.946 286.281 424.189C 286.844 422.549 287.003 420.852 286.739 419.141C 286.475 417.397 285.79 415.792 284.799 414.339C 283.717 412.754 282.285 411.457 280.681 410.416C 278.832 409.213 276.735 408.427 274.597 407.917C 272.053 407.372 269.494 407.103 266.925 407.103L 266.982 407.123zM 266.982 413.776C 268.921 413.776 270.855 413.956 272.755 414.335C 274.137 414.646 275.544 415.174 276.704 416.054C 277.616 416.748 278.418 417.583 278.897 418.635C 279.308 419.54 279.468 420.489 279.326 421.475C 279.185 422.496 278.691 423.381 278.012 424.149C 277.113 425.166 275.845 425.849 274.586 426.309C 272.852 426.942 271.023 427.329 269.194 427.56C 267.189 427.818 265.171 427.964 263.145 428.011C 261.255 428.069 259.36 428.069 257.468 428.011L 254.477 428.011L 254.477 419.074C 254.477 418.37 254.74 417.769 255.208 417.215C 255.836 416.504 256.687 415.957 257.563 415.543C 258.727 414.994 259.955 414.593 261.215 414.332C 263.11 413.94 265.046 413.77 266.98 413.77L 266.982 413.776z"
         style="stroke:none; fill:#ffffff" />
      <path
         id="path14"
         d="M 377.842 410.351C 378.551 409.878 379.306 409.471 380.097 409.122C 381.917 408.319 383.84 407.782 385.802 407.465C 387.834 407.137 389.894 407.009 391.95 407.055C 393.935 407.115 395.916 407.301 397.863 407.684L 399.213 407.947L 397.807 414.324L 396.465 413.989C 395.057 413.639 393.571 413.517 392.123 413.517C 390.428 413.517 388.742 413.68 387.076 413.989C 385.468 414.288 383.876 414.744 382.368 415.386C 381.177 415.895 380.011 416.58 379.102 417.514C 378.43 418.203 378.071 418.979 378.046 419.906L 378.046 448.894L 370.18 448.894L 370.18 407.652L 377.842 407.652L 377.842 410.351z"
         style="stroke:none; fill:#ffffff" />
      <path
         id="path16"
         d="M 440.63 407.107C 439.338 407.107 438.046 407.171 436.76 407.3C 435.471 407.428 434.19 407.639 432.926 407.927C 430.802 408.358 428.698 409.042 426.734 410.033C 424.961 410.928 423.368 412.113 422.149 413.69C 420.932 415.26 420.332 417.074 420.311 419.06L 420.311 437.325C 420.311 439.014 420.752 440.601 421.656 442.013C 422.543 443.399 423.742 444.52 425.111 445.425C 426.598 446.406 428.239 447.134 429.928 447.69C 431.769 448.298 433.666 448.721 435.589 448.967C 437.949 449.271 440.328 449.347 442.705 449.242C 445.059 449.138 447.406 448.81 449.691 448.227C 451.652 447.73 453.545 446.987 455.303 445.982C 456.893 445.073 458.295 443.902 459.354 442.403C 460.419 440.893 460.934 439.188 460.952 437.342L 460.952 419.074C 460.952 417.074 460.333 415.262 459.116 413.691C 457.896 412.113 456.304 410.928 454.53 410.034C 452.567 409.042 450.463 408.363 448.311 407.922C 447.102 407.637 445.83 407.432 444.555 407.301C 443.253 407.173 441.94 407.108 440.63 407.108L 440.63 407.107zM 440.63 413.729C 441.626 413.729 442.625 413.789 443.613 413.893C 444.563 413.998 445.509 414.133 446.445 414.332C 447.71 414.594 448.949 414.989 450.118 415.542C 450.991 415.957 451.829 416.505 452.471 417.236C 452.924 417.769 453.175 418.37 453.187 419.094L 453.187 437.325C 453.187 437.964 452.981 438.536 452.575 439.059C 452.04 439.746 451.333 440.283 450.573 440.696C 449.572 441.24 448.492 441.635 447.391 441.927C 445.683 442.378 443.927 442.632 442.167 442.725C 440.354 442.819 438.544 442.784 436.744 442.525C 435.179 442.328 433.63 441.958 432.157 441.389C 431.043 440.956 429.922 440.34 429.072 439.485C 428.463 438.876 428.091 438.182 428.078 437.311L 428.078 419.075C 428.078 418.357 428.331 417.74 428.805 417.175C 429.431 416.467 430.273 415.926 431.151 415.52C 432.319 414.982 433.562 414.599 434.82 414.334C 435.76 414.134 436.714 414 437.668 413.895C 438.653 413.789 439.64 413.732 440.63 413.732L 440.63 413.729z"
         style="stroke:none; fill:#ffffff" />
      <path
         id="path18"
         d="M 344.853 406.383L 341.18 409.397L 341.18 409.393C 340.54 409.114 339.885 408.862 339.224 408.641C 338.23 408.306 337.217 408.043 336.187 407.842C 334.948 407.552 333.687 407.343 332.42 407.218C 331.118 407.091 329.805 407.025 328.496 407.025C 327.216 407.025 325.933 407.091 324.658 407.218C 323.357 407.347 322.067 407.559 320.791 407.847C 318.667 408.282 316.559 408.96 314.596 409.949C 312.823 410.844 311.235 412.029 310.014 413.606C 308.798 415.179 308.197 416.994 308.178 418.979L 308.178 430.243C 308.197 432.338 308.859 434.226 310.167 435.847C 310.993 436.873 311.984 437.727 313.076 438.437C 312.238 439.136 311.547 439.995 311.189 441.047C 310.735 442.293 310.805 443.597 311.354 444.834C 311.941 446.152 313.003 447.145 314.218 447.886C 315.733 448.811 317.542 449.283 319.288 449.514C 321.161 449.721 323.036 449.776 324.892 449.76C 326.87 449.738 328.847 449.741 330.826 449.747C 332.582 449.753 334.352 449.866 336.084 450.161C 337.272 450.361 338.543 450.744 339.508 451.494C 340.287 452.099 340.523 452.997 340.542 453.952L 340.542 455.34C 340.542 455.875 340.453 456.444 340.141 456.893C 339.809 457.372 339.255 457.722 338.739 457.969C 337.805 458.416 336.769 458.733 335.768 458.993C 334.465 459.328 333.101 459.523 331.763 459.638C 330.161 459.781 328.548 459.801 326.943 459.716C 325.351 459.632 323.761 459.437 322.209 459.07C 321.183 458.826 320.163 458.51 319.198 458.084C 318.499 457.775 317.79 457.366 317.258 456.812C 316.831 456.365 316.618 455.855 316.539 455.244L 316.534 455.216L 316.526 455.183C 316.442 454.713 316.421 454.236 316.46 453.76C 316.5 453.272 316.607 452.797 316.773 452.337L 317.422 450.536L 309.524 450.536L 309.185 451.379C 308.891 452.109 308.708 452.883 308.667 453.67C 308.612 454.347 308.622 455.066 308.686 455.776C 308.85 457.606 309.473 459.289 310.655 460.703C 311.818 462.09 313.314 463.091 314.962 463.822C 316.775 464.627 318.708 465.149 320.66 465.48C 322.054 465.76 323.503 465.948 324.962 466.056C 326.409 466.165 327.86 466.207 329.31 466.207C 330.744 466.207 332.177 466.157 333.607 466.044C 335.033 465.932 336.446 465.708 337.834 465.382C 339.666 464.987 341.511 464.405 343.193 463.52C 344.696 462.73 346.036 461.665 346.994 460.252C 347.987 458.787 348.393 457.109 348.411 455.355L 348.411 453.924C 348.411 451.989 348.024 450.039 346.905 448.427C 345.908 446.99 344.553 445.938 342.95 445.244C 341.296 444.525 339.527 444.105 337.74 443.885C 335.818 443.649 333.884 443.528 331.947 443.504C 330.005 443.473 328.064 443.467 326.121 443.452C 324.395 443.44 322.659 443.35 320.944 443.145C 320.545 443.086 319.618 442.912 319.288 442.589C 319.245 442.548 319.185 442.485 319.152 442.437C 319.227 442.249 319.523 442.062 319.67 441.979C 320.187 441.687 320.883 441.594 321.482 441.578C 321.885 441.654 322.285 441.732 322.689 441.787C 323.132 441.868 323.626 441.923 324.12 441.963L 324.178 441.97L 324.26 441.97C 325.35 442.09 326.446 442.159 327.542 442.192C 328.664 442.229 329.786 442.209 330.904 442.127C 332.05 442.086 333.19 441.968 334.323 441.787C 335.397 441.614 336.466 441.396 337.527 441.149L 337.568 441.145C 339.519 440.628 341.418 439.906 343.169 438.899C 344.753 437.988 346.158 436.819 347.215 435.319C 348.28 433.811 348.799 432.105 348.818 430.258L 348.818 418.994C 348.818 417.799 348.6 416.625 348.135 415.521C 347.87 414.89 347.53 414.301 347.134 413.75L 351.042 410.546L 344.853 406.383zM 328.496 413.729C 329.502 413.729 330.51 413.772 331.512 413.856C 332.45 413.935 333.383 414.055 334.307 414.248C 335.572 414.514 336.812 414.909 337.984 415.464C 338.857 415.878 339.694 416.424 340.336 417.153C 340.787 417.684 341.041 418.29 341.052 419.013L 341.052 430.243C 341.042 430.872 340.85 431.439 340.444 431.953C 339.913 432.625 339.193 433.142 338.444 433.544C 337.438 434.085 336.363 434.479 335.259 434.767C 334.497 434.951 333.705 435.106 332.905 435.221C 332.052 435.344 331.194 435.441 330.338 435.512C 329.465 435.552 328.591 435.565 327.72 435.549C 326.886 435.536 326.055 435.478 325.229 435.364C 323.549 435.177 321.897 434.849 320.331 434.302C 319.153 433.889 317.972 433.303 317.057 432.44C 316.411 431.831 316.054 431.119 316.042 430.227L 316.042 418.994C 316.054 418.293 316.284 417.687 316.752 417.137C 317.371 416.412 318.229 415.866 319.082 415.461C 320.255 414.9 321.519 414.518 322.788 414.248C 323.681 414.059 324.587 413.935 325.496 413.856C 326.494 413.768 327.495 413.729 328.496 413.729z"
         style="stroke:none; fill:#00a7db" />
      <path
         id="path20"
         d="M 335.287 369.545C 335.246 369.545 335.204 369.551 335.161 369.561L 334.967 369.637C 334.333 370.011 334.464 369.974 334.317 370.737C 334.308 370.784 334.3 370.83 334.291 370.877C 334.282 370.921 334.269 370.968 334.26 371.012C 333.937 372.56 335.242 373.608 335.33 374.971C 335.543 378.301 336.23 382.68 337.524 385.676C 337.96 386.686 339.049 388.036 338.647 389.169C 337.742 392.949 334.699 394.892 330.99 395.7C 325.587 396.55 324.486 399.292 321.544 401.897L 317.81 405.705C 316.169 406.693 314.944 407.918 313.646 409.409C 312.917 410.076 311.88 410.976 311.409 411.66C 311.301 411.953 310.561 413.021 310.042 413.989C 309.989 414.053 309.935 414.122 309.884 414.189C 309.269 414.979 308.829 415.844 308.563 416.782L 324.862 408.04C 325.119 407.977 325.378 407.909 325.637 407.842C 329.373 406.272 331.87 406.169 335.139 402.204C 336.302 400.63 339.44 399.725 341.379 399.449C 342.589 399.002 342.975 398.947 343.464 399.334C 343.578 402.027 343.678 404.002 344.31 406.383C 344.382 407.11 344.408 407.679 344.413 408.136L 344.684 407.887L 344.81 407.823C 345.515 408.801 345.787 407.38 346.446 408.497C 346.585 407.769 346.736 406.897 346.649 405.85C 346.31 404.955 347.016 402.742 346.925 401.729C 346.818 400.562 347.048 399.76 346.967 398.558L 346.322 393.95L 346.693 393.087L 347.064 395.271L 347.126 395.436L 347.473 396.072L 347.513 396.177L 347.536 396.284L 347.578 396.812L 347.685 397.121L 348.026 397.626C 348.099 398.296 348.847 399.214 348.66 399.805C 349.355 398.822 348.981 399.217 348.939 398.424C 350.04 396.483 348.691 396.556 348.83 394.763C 348.904 393.797 348.699 393.338 348.669 392.431C 349.249 392.18 350.119 392.695 351.975 389.891C 353.221 388.009 351.23 386.279 350.25 386.256C 348.793 386.222 346.642 387.577 346.28 388.518C 346.153 388.846 346.269 389.589 345.004 390.17C 344.512 390.396 344.293 390.352 343.883 390.106C 343.805 390.059 343.149 389.466 343.061 389.336C 342.648 388.717 342.65 387.795 342.208 387.09C 341.019 385.195 339.2 383.865 338.785 380.898C 338.23 376.953 336.426 375.835 337.489 373.418C 337.812 372.684 337.508 371.927 337.676 371.373C 337.674 371.376 337.679 371.365 337.676 371.358C 337.674 371.342 337.679 371.315 337.674 371.286C 337.666 371.242 337.625 371.216 337.593 371.226C 337.005 371.383 337.461 371.832 337.007 372.335C 336.305 371.781 336.109 369.551 335.287 369.544L 335.287 369.545z"
         style="stroke:none; fill:#00a7db" />
      <path
         id="path22"
         d="M 138.213 468.911L 431.087 468.911L 431.087 511.692C 431.087 512.006 430.961 512.288 430.756 512.491C 430.552 512.695 430.267 512.821 429.95 512.821L 137.118 512.821C 136.8 512.529 136.601 512.109 136.601 511.641L 136.601 470.515C 136.601 469.626 137.318 468.911 138.213 468.911zM 431.795 468.911L 431.826 468.911C 432.718 468.911 433.438 469.626 433.438 470.515L 433.438 511.641C 433.438 512.531 432.718 513.246 431.826 513.246L 430.937 513.246C 431.052 513.173 431.159 513.088 431.255 512.993C 431.589 512.66 431.795 512.2 431.795 511.692L 431.795 468.911z"
         style="stroke:none; fill:#00abc6" />
      <path
         id="path24"
         d="M 429.95 467.08L 136.105 467.08C 135.789 467.08 135.505 467.206 135.3 467.41C 135.095 467.614 134.969 467.897 134.969 468.21L 134.969 511.692C 134.969 512.005 135.095 512.288 135.299 512.491C 135.504 512.695 135.789 512.821 136.105 512.821L 429.95 512.821C 430.267 512.821 430.552 512.695 430.756 512.491C 430.961 512.288 431.087 512.006 431.087 511.692L 431.087 468.21C 431.087 467.897 430.961 467.613 430.756 467.41C 430.551 467.206 430.267 467.08 429.95 467.08z"
         style="stroke:none; fill:#00a7db" />
      <path
         id="path26"
         d="M 429.95 467.08L 136.105 467.08C 135.789 467.08 135.505 467.206 135.3 467.41C 135.095 467.614 134.969 467.897 134.969 468.21L 134.969 511.692C 134.969 512.005 135.095 512.288 135.299 512.491C 135.504 512.695 135.789 512.821 136.105 512.821L 429.95 512.821C 430.267 512.821 430.552 512.695 430.756 512.491C 430.961 512.288 431.087 512.006 431.087 511.692L 431.087 468.21C 431.087 467.897 430.961 467.613 430.756 467.41C 430.551 467.206 430.267 467.08 429.95 467.08z"
         style="stroke:none; fill:#00a7db" />
      <path
         id="path28"
         d="M 171.262 494.957L 173.04 494.957C 173.278 498.266 176.005 499.88 180.687 499.88C 184.602 499.88 187.684 498.307 187.684 495.764C 187.684 489.711 171.618 491.285 171.618 484.344C 171.618 481.277 175.175 479.178 180.096 479.178C 185.312 479.178 188.691 481.317 188.87 484.748L 187.032 484.748C 186.913 481.924 184.364 480.349 180.096 480.349C 176.242 480.349 173.455 481.924 173.455 484.384C 173.455 490.196 189.462 488.662 189.462 495.805C 189.462 498.952 185.61 501.091 180.687 501.091C 175.056 501.091 171.439 498.871 171.262 494.957z"
         style="stroke:none; fill:#ffffff" />
      <path
         id="path30"
         d="M 227.284 499.598L 227.284 500.768L 225.98 500.768C 220.704 500.768 217.977 498.912 217.977 495.199L 217.977 480.753L 213.59 480.753L 213.59 479.622L 217.977 479.622L 217.977 474.659L 219.815 474.659L 219.815 479.622L 226.811 479.622L 226.811 480.753L 219.815 480.753L 219.815 495.199C 219.815 498.266 221.949 499.598 225.98 499.598L 227.284 499.598z"
         style="stroke:none; fill:#ffffff" />
      <path
         id="path32"
         d="M 271.45 479.622L 271.45 500.647L 269.79 500.647L 269.613 497.823L 269.613 497.096C 267.953 499.557 264.87 501.091 261.017 501.091C 256.155 501.091 253.191 498.549 253.191 493.302L 253.191 479.622L 255.029 479.622L 255.029 493.181C 255.029 497.701 257.223 499.92 261.373 499.92C 266.115 499.92 269.613 496.975 269.613 492.495L 269.613 479.622L 271.45 479.622z"
         style="stroke:none; fill:#ffffff" />
      <path
         id="path34"
         d="M 316.269 494.432L 316.269 486.927C 316.269 482.608 312.831 480.349 308.621 480.349C 304.175 480.349 301.27 482.488 301.27 486.079L 301.27 494.15C 301.27 497.741 304.471 499.921 308.858 499.921C 313.008 499.921 316.269 497.701 316.269 494.432zM 318.047 471.471L 318.047 500.647L 316.446 500.647L 316.269 498.226C 314.727 499.88 311.882 501.091 308.562 501.091C 303.345 501.091 299.432 498.346 299.432 494.15L 299.432 486.079C 299.432 481.922 302.989 479.178 308.206 479.178C 311.823 479.178 314.905 480.429 316.269 482.77L 316.269 471.471L 318.047 471.471z"
         style="stroke:none; fill:#ffffff" />
      <path
         id="path36"
         d="M 346.918 479.622L 348.756 479.622L 348.756 500.647L 346.918 500.647L 346.918 479.622zM 345.97 474.255C 345.97 473.489 346.741 473.005 347.867 473.005C 348.994 473.005 349.706 473.489 349.706 474.255C 349.706 475.023 348.994 475.547 347.867 475.547C 346.741 475.547 345.97 475.023 345.97 474.255z"
         style="stroke:none; fill:#ffffff" />
      <path
         id="path38"
         d="M 393.93 494.19L 393.93 486.039C 393.93 482.528 391.084 480.389 386.342 480.389C 381.599 480.389 378.694 482.528 378.694 486.039L 378.694 494.19C 378.694 497.701 381.599 499.88 386.342 499.88C 391.084 499.88 393.93 497.701 393.93 494.19zM 376.856 494.19L 376.856 486.039C 376.856 481.842 380.473 479.178 386.342 479.178C 392.152 479.178 395.767 481.842 395.767 486.039L 395.767 494.19C 395.767 498.387 392.152 501.091 386.342 501.091C 380.473 501.091 376.856 498.387 376.856 494.19z"
         style="stroke:none; fill:#ffffff" />
    </g>
  </g>
</svg>
